# xmcd CD database file
#
# Track frame offsets:
#	150
#	23790
#	45531
#	69501
#	88704
#	107999
#	123811
#	151271
#	167038
#	192285
#	212500
#	232551
#
# Disc length: 3322 seconds
#
# Revision: 0
# Processed by: cddbd v1.5.1PL2 Copyright (c) Steve Scherf et al.
# Submitted via: CDex 1.50
#
DISCID=8e0cf80c
DTITLE=Philippe Renault - Nonet
DYEAR=1991
DGENRE=Jazz
TTITLE0=A l'année prochaine
TTITLE1=Nautilus
TTITLE2=Bossa pour septembre
TTITLE3=Nap's dream
TTITLE4=Feather's Nest
TTITLE5=Teemoo
TTITLE6=GNID
TTITLE7=Briefing
TTITLE8=Cassiopee
TTITLE9=Poisson de Badivril
TTITLE10=Rendez-vous manque
TTITLE11=Falklands
EXTD=YEAR: 1991
EXTT0=
EXTT1=
EXTT2=
EXTT3=
EXTT4=
EXTT5=
EXTT6=
EXTT7=
EXTT8=
EXTT9=
EXTT10=
EXTT11=
PLAYORDER=
